Patient4_TMGait_0pt2_03_right_23_GRF.mot
version=1
nRows=64
nColumns=19
inDegrees=no
endheader
time	F1x	F1y	F1z	M1x	M1y	M1z	F2x	F2y	F2z	M2x	M2y	M2z	EC1x	EC1y	EC1z	EC2x	EC2y	EC2z
49.16	-14.7832	754.6147	64.8407	-258.9232	-74.8927	838.2922	6.7537	25.2337	-2.4104	7.7708	1.2447	23.4338	-0.0592	0.0182	-0.0073	-0.0462	0.0165	0.9585
49.1807	-15.0216	776.3672	65.8495	-266.6844	-75.5686	860.7468	3.7759	18.9239	-1.7745	5.9148	1.2969	17.8404	-0.0592	0.0182	-0.0073	-0.0462	0.0165	0.9585
49.2014	-15.6789	802.8129	66.5956	-276.1801	-76.0328	887.8748	1.4299	13.0917	-1.2084	4.1763	1.2452	12.6099	-0.0592	0.0182	-0.0073	-0.0462	0.0165	0.9585
49.2221	-16.5616	832.3042	66.9685	-286.8301	-76.1182	917.8236	-0.18732	8.2778	-0.75554	2.7245	1.1205	8.2515	-0.0592	0.0182	-0.0073	-0.0462	0.0165	0.9585
49.2429	-17.3032	861.9294	66.9675	-297.5969	-75.7153	947.3671	-1.1823	4.6881	-0.42459	1.6297	0.97122	4.9794	-0.0592	0.0182	-0.0073	-0.0462	0.0165	0.9585
49.2636	-17.5026	887.7273	66.6563	-307.0655	-74.7748	972.1725	-1.703	2.2467	-0.20349	0.8741	0.82835	2.7339	-0.0592	0.0182	-0.0073	-0.0462	0.0165	0.9585
49.2843	-16.8437	905.4485	66.0869	-313.7238	-73.2644	987.6563	-1.895	0.71879	-0.071673	0.38869	0.70876	1.2987	-0.0592	0.0182	-0.0073	-0.0462	0.0165	0.9585
49.305	-15.1348	911.6745	65.2409	-316.3619	-71.1187	990.1936	-1.8816	-0.19905	-0.0039407	0.080322	0.6157	0.38923	-0.0592	0.0182	-0.0073	-0.0462	0.0165	0.9585
49.3257	-12.3203	904.7811	64.0445	-314.4072	-68.2566	978.1401	-1.7555	-0.82008	0.025334	-0.14992	0.5413	-0.29631	-0.0592	0.0182	-0.0073	-0.0462	0.0165	0.9585
49.3464	-8.4626	885.3505	62.4408	-308.0634	-64.6506	952.2557	-1.5748	-1.4336	0.038613	-0.39505	0.46982	-1.0407	-0.0592	0.0182	-0.0073	-0.0462	0.0165	0.9585
49.3671	-3.7091	856.025	60.4458	-298.2526	-60.3807	915.5273	-1.3697	-2.2748	0.054066	-0.73117	0.38457	-2.073	-0.0592	0.0182	-0.0073	-0.0462	0.0165	0.9585
49.3879	1.7358	820.8968	58.1748	-286.3956	-55.6509	872.4876	-1.1522	-3.4981	0.08436	-1.2076	0.27376	-3.5441	-0.0592	0.0182	-0.0073	-0.0462	0.0165	0.9585
49.4086	7.639	784.6377	55.8308	-274.1066	-50.7601	828.2549	-0.92351	-5.1467	0.13933	-1.8358	0.12809	-5.4889	-0.0592	0.0182	-0.0073	-0.0462	0.0165	0.9585
49.4293	13.7555	751.6325	53.6458	-262.8982	-46.0301	787.598	-0.68191	-7.107	0.22417	-2.5721	-0.057539	-7.7724	-0.0592	0.0182	-0.0073	-0.0462	0.0165	0.9585
49.45	19.8351	725.2944	51.8161	-253.9488	-41.7397	754.2153	-0.42789	-9.0463	0.33569	-3.294	-0.27961	-10.0136	-0.0592	0.0182	-0.0073	-0.0462	0.0165	0.9585
49.4707	25.6348	707.5654	50.4723	-247.9325	-38.0941	730.2204	-0.17219	-10.3398	0.46135	-3.7746	-0.5163	-11.4999	-0.0592	0.0182	-0.0073	-0.0462	0.0165	0.9585
49.4914	30.9518	698.6709	49.6718	-244.9299	-35.2067	715.8919	0.053626	-10.0059	0.57617	-3.6584	-0.71751	-11.118	-0.0592	0.0182	-0.0073	-0.0462	0.0165	0.9585
49.5121	35.6316	697.1118	49.4103	-244.4197	-33.1123	709.6983	0.18843	-6.6585	0.63575	-2.4439	-0.79801	-7.2978	-0.0592	0.0182	-0.0073	-0.0462	0.0165	0.9585
49.5329	39.5286	699.8986	49.6354	-245.356	-31.7962	708.5763	0.13449	1.4723	0.56973	0.51108	-0.63014	1.9705	-0.0592	0.0182	-0.0073	-0.0462	0.0165	0.9585
49.5536	42.4826	703.0231	50.2331	-246.3332	-31.1932	708.4446	-0.25092	16.4043	0.2809	5.9407	-0.04035	18.9749	-0.0592	0.0182	-0.0073	-0.0462	0.0165	0.9585
49.5743	44.3277	702.0758	51.0078	-245.8049	-31.166	704.8432	-1.1568	40.0875	-0.34941	14.5553	1.1848	45.9204	-0.0592	0.0182	-0.0073	-0.0462	0.0165	0.9585
49.595	44.9194	692.9587	51.6781	-242.3396	-31.4944	693.6614	-2.8026	73.8459	-1.4519	26.8373	3.2768	84.2969	-0.0592	0.0182	-0.0073	-0.0462	0.0165	0.9585
49.6157	44.1455	672.5768	51.905	-234.8648	-31.9005	671.8357	-5.3995	117.5367	-3.1482	42.7331	6.4391	133.919	-0.0592	0.0182	-0.0073	-0.0462	0.0165	0.9585
49.6364	41.9638	639.5452	51.3553	-222.9153	-32.097	638.0397	-9.0255	168.7868	-5.5917	61.3606	10.8498	192.0732	-0.0592	0.0182	-0.0073	-0.0462	0.0165	0.9585
49.6571	38.4942	594.8176	49.8117	-206.8509	-31.8557	593.2589	-13.3869	223.1286	-8.9165	81.062	16.5074	253.6586	-0.0592	0.0182	-0.0073	-0.0462	0.0165	0.9585
49.6779	34.0887	541.8529	47.2752	-187.9025	-31.0738	540.9024	-17.9345	276.4201	-12.9276	100.3072	22.9552	313.9336	-0.0592	0.0182	-0.0073	-0.0462	0.0165	0.9585
49.6986	29.2611	485.7478	43.9827	-167.8633	-29.8069	485.9169	-22.1575	326.6329	-17.2658	118.3467	29.5981	370.5718	-0.0592	0.0182	-0.0073	-0.0462	0.0165	0.9585
49.7193	24.5112	431.6485	40.274	-148.5392	-28.1984	433.2352	-25.7355	372.9727	-21.5409	134.8904	35.8918	422.6882	-0.0592	0.0182	-0.0073	-0.0462	0.0165	0.9585
49.74	20.2094	383.4115	36.4547	-131.2871	-26.3908	386.5008	-28.4841	414.8389	-25.3988	149.7229	41.3912	469.6356	-0.0592	0.0182	-0.0073	-0.0462	0.0165	0.9585
49.7607	16.5672	343.0374	32.7655	-116.82	-24.5106	347.5385	-30.2638	451.4415	-28.6031	162.5607	45.797	510.5492	-0.0592	0.0182	-0.0073	-0.0462	0.0165	0.9585
49.7814	13.6516	310.7726	29.3885	-105.2385	-22.6771	316.4682	-30.9801	481.9484	-31.0897	173.1023	49.0098	544.5045	-0.0592	0.0182	-0.0073	-0.0462	0.0165	0.9585
49.8021	11.4291	285.5459	26.4422	-96.1803	-20.9873	292.1469	-30.6663	505.8903	-32.9119	181.1799	51.1011	570.9776	-0.0592	0.0182	-0.0073	-0.0462	0.0165	0.9585
49.8229	9.8287	265.5145	23.9664	-89.0117	-19.4814	272.7066	-29.4514	523.5788	-34.1562	186.917	52.2148	590.3006	-0.0592	0.0182	-0.0073	-0.0462	0.0165	0.9585
49.8436	8.7743	248.5832	21.9049	-83.0076	-18.1155	256.0595	-27.4873	536.2116	-34.9426	190.7642	52.5376	603.7736	-0.0592	0.0182	-0.0073	-0.0462	0.0165	0.9585
49.8643	8.2025	232.801	20.113	-77.4923	-16.7728	240.2875	-24.9383	545.5979	-35.4369	193.3972	52.307	613.3689	-0.0592	0.0182	-0.0073	-0.0462	0.0165	0.9585
49.885	8.0592	216.6043	18.4035	-71.9232	-15.3025	223.8727	-21.9817	553.7749	-35.8342	195.5746	51.7972	621.3162	-0.0592	0.0182	-0.0073	-0.0462	0.0165	0.9585
49.9057	8.2782	198.905	16.6078	-65.9225	-13.5755	205.7757	-18.7914	562.6559	-36.3186	198.0088	51.2712	629.7096	-0.0592	0.0182	-0.0073	-0.0462	0.0165	0.9585
49.9264	8.7675	179.1125	14.6133	-59.2808	-11.5236	185.4461	-15.5211	573.7222	-37.0297	201.2569	50.9375	640.1692	-0.0592	0.0182	-0.0073	-0.0462	0.0165	0.9585
49.9471	9.3926	157.1473	12.3863	-51.9583	-9.169	162.8365	-12.306	587.8424	-38.0293	205.6591	50.9092	653.6602	-0.0592	0.0182	-0.0073	-0.0462	0.0165	0.9585
49.9679	9.9663	133.4472	9.9909	-44.0866	-6.6459	138.4165	-9.2732	605.218	-39.2878	211.3187	51.1963	670.4385	-0.0592	0.0182	-0.0073	-0.0462	0.0165	0.9585
49.9886	10.2717	108.9425	7.5762	-35.9621	-4.178	113.1505	-6.5467	625.3858	-40.7072	218.0966	51.7348	690.0582	-0.0592	0.0182	-0.0073	-0.0462	0.0165	0.9585
50.0093	10.1221	84.8979	5.3317	-27.9964	-2.017	88.3363	-4.2457	647.3214	-42.1511	225.6428	52.4277	711.4841	-0.0592	0.0182	-0.0073	-0.0462	0.0165	0.9585
50.03	9.4127	62.6092	3.4189	-20.616	-0.36	65.2988	-2.4972	669.7149	-43.4803	233.4854	53.184	733.3944	-0.0592	0.0182	-0.0073	-0.0462	0.0165	0.9585
50.0507	8.1621	43.1141	1.9227	-14.1669	0.71101	45.1072	-1.4533	691.3597	-44.6007	241.1635	53.9697	754.609	-0.0592	0.0182	-0.0073	-0.0462	0.0165	0.9585
50.0714	6.5067	27.0915	0.86027	-8.876	1.22	28.4732	-1.292	711.5227	-45.487	248.3608	54.8288	774.4793	-0.0592	0.0182	-0.0073	-0.0462	0.0165	0.9585
50.0921	4.6779	14.835	0.20029	-4.838	1.2706	15.7188	-2.1849	730.2066	-46.1685	255.011	55.8517	793.1442	-0.0592	0.0182	-0.0073	-0.0462	0.0165	0.9585
50.1129	2.9431	6.2376	-0.13376	-2.0121	1.0259	6.7516	-4.2145	748.2513	-46.6913	261.3528	57.1081	811.5868	-0.0592	0.0182	-0.0073	-0.0462	0.0165	0.9585
50.1336	1.4997	0.81945	-0.24588	-0.23572	0.65557	1.0842	-7.2821	767.0202	-47.1026	267.8336	58.5994	831.2532	-0.0592	0.0182	-0.0073	-0.0462	0.0165	0.9585
50.1543	0.41803	-2.1143	-0.22329	0.72205	0.27047	-1.9997	-11.0637	787.6788	-47.4539	274.8642	60.2465	853.2538	-0.0592	0.0182	-0.0073	-0.0462	0.0165	0.9585
50.175	-0.31514	-3.285	-0.13124	1.0989	-0.069465	-3.2454	-15.0492	810.4664	-47.7901	282.5579	61.8941	877.6126	-0.0592	0.0182	-0.0073	-0.0462	0.0165	0.9585
50.1957	-0.75679	-3.3278	-0.013447	1.1043	-0.34011	-3.3166	-18.7001	834.3184	-48.1298	290.5862	63.3481	902.9391	-0.0592	0.0182	-0.0073	-0.0462	0.0165	0.9585
50.2164	-0.98257	-2.7509	0.10439	0.90527	-0.53843	-2.7435	-21.574	856.9943	-48.4474	298.2096	64.4039	926.6389	-0.0592	0.0182	-0.0073	-0.0462	0.0165	0.9585
50.2371	-1.068	-1.9261	0.20934	0.62464	-0.6747	-1.9136	-23.3903	875.6275	-48.6686	304.4587	64.8665	945.5292	-0.0592	0.0182	-0.0073	-0.0462	0.0165	0.9585
50.2579	-1.0753	-1.1058	0.2959	0.34769	-0.76237	-1.0892	-24.0291	887.4424	-48.6877	308.379	64.57	956.6101	-0.0592	0.0182	-0.0073	-0.0462	0.0165	0.9585
50.2786	-1.0446	-0.45386	0.36431	0.12979	-0.8133	-0.43767	-23.4908	890.4055	-48.4098	309.2607	63.4092	957.7445	-0.0592	0.0182	-0.0073	-0.0462	0.0165	0.9585
50.2993	-1.0016	-0.071353	0.41489	0.0061551	-0.83573	-0.067601	-21.8624	883.7357	-47.7872	306.8208	61.3704	948.1805	-0.0592	0.0182	-0.0073	-0.0462	0.0165	0.9585
50.32	-0.95992	-0.019297	0.44755	-0.0011885	-0.83521	-0.054534	-19.3026	868.1549	-46.836	301.2962	58.5478	928.8029	-0.0592	0.0182	-0.0073	-0.0462	0.0165	0.9585
50.3407	-0.924	-0.33828	0.46013	0.12149	-0.81175	-0.45017	-16.024	845.7528	-45.6493	293.3991	55.1486	901.9656	-0.0592	0.0182	-0.0073	-0.0462	0.0165	0.9585
50.3614	-0.88798	-1.048	0.44513	0.37977	-0.75866	-1.2846	-12.2624	819.492	-44.3831	284.1458	51.4659	870.9408	-0.0592	0.0182	-0.0073	-0.0462	0.0165	0.9585
50.3821	-0.84083	-2.1274	0.39474	0.76514	-0.66669	-2.5424	-8.2657	792.5497	-43.2302	274.6302	47.8381	839.2037	-0.0592	0.0182	-0.0073	-0.0462	0.0165	0.9585
50.4029	-0.76957	-3.4941	0.30011	1.2467	-0.52242	-4.1337	-4.2557	767.7715	-42.3681	265.8394	44.5748	809.8411	-0.0592	0.0182	-0.0073	-0.0462	0.0165	0.9585
50.4236	-0.65751	-4.9629	0.15153	1.7581	-0.30689	-5.8417	-0.40942	747.2921	-41.9137	258.5218	41.9015	785.1464	-0.0592	0.0182	-0.0073	-0.0462	0.0165	0.9585
50.4443	-0.48768	-6.1906	-0.052554	2.1789	-0.010025	-7.2689	3.1492	732.3436	-41.9037	253.1209	39.9308	766.4196	-0.0592	0.0182	-0.0073	-0.0462	0.0165	0.9585
50.465	-0.24901	-6.6266	-0.29867	2.3152	0.35778	-7.775	6.3546	723.2333	-42.3043	249.7632	38.6675	753.9572	-0.0592	0.0182	-0.0073	-0.0462	0.0165	0.9585
